Coordinates
version=1
nRows=5
nColumns=40
inDegrees=yes

Units are S.I. units (second, meters, Newtons, ...)
Angles are in degrees.

endheader
time	pelvis_tilt	pelvis_list	pelvis_rotation	pelvis_tx	pelvis_ty	pelvis_tz	hip_flexion_r	hip_adduction_r	hip_rotation_r	knee_angle_r	knee_angle_r_beta	ankle_angle_r	subtalar_angle_r	mtp_angle_r	hip_flexion_l	hip_adduction_l	hip_rotation_l	knee_angle_l	knee_angle_l_beta	ankle_angle_l	subtalar_angle_l	mtp_angle_l	lumbar_extension	lumbar_bending	lumbar_rotation	arm_flex_r	arm_add_r	arm_rot_r	elbow_flex_r	pro_sup_r	wrist_flex_r	wrist_dev_r	arm_flex_l	arm_add_l	arm_rot_l	elbow_flex_l	pro_sup_l	wrist_flex_l	wrist_dev_l
     34.16000000	     -4.27715542	     -3.88705134	      2.40017992	      1.10855810	      0.93346598	      0.50470073	     10.95114853	      1.63006004	    -15.40496984	     15.22131617	     15.22131617	     10.04047395	      3.21457272	     -4.13406103	     32.08447423	    -11.67397039	      0.13453832	     44.85377386	     44.85377386	      9.67648419	    -16.88768190	     10.45381581	    -11.34876744	      5.20164646	      3.52007663	     24.11938287	    -23.46997566	      1.97180611	     63.22206822	     45.03129262	      0.00000000	      0.00000000	      1.87363016	     -8.59530700	     -3.66963947	     30.01662334	     46.36643454	      0.00000000	      0.00000000
     34.17285714	     -4.33139162	     -3.84209137	      2.65096829	      1.10815558	      0.93373920	      0.50460200	     10.45681708	      1.61499686	    -15.66936904	     14.83363705	     14.83363705	     10.15061669	      3.48717339	     -4.12685389	     32.02962952	    -11.29919041	      0.10475633	     40.97700436	     40.97700436	      9.25281328	    -16.32471724	     10.18729773	    -11.46160301	      5.22595565	      3.26972162	     25.86523361	    -23.32499320	      2.28050888	     63.89738807	     45.01219253	      0.00000000	      0.00000000	      0.90206279	     -8.50734570	     -3.66897800	     28.99440016	     46.34971419	      0.00000000	      0.00000000
     34.18571429	     -4.54947920	     -3.75457503	      2.83744416	      1.10766603	      0.93359782	      0.50441868	     10.24192574	      1.53601647	    -15.76506905	     14.62652522	     14.62652522	     10.33697907	      3.51456780	     -4.18279454	     32.06795016	    -10.90404032	     -0.04224148	     37.09909698	     37.09909698	      9.01744768	    -15.18557365	     10.26507200	    -11.32326994	      5.17415345	      3.51258600	     27.20798245	    -23.49899874	      2.33364560	     64.34880160	     45.00504723	      0.00000000	      0.00000000	      0.06869327	     -8.37588649	     -3.67664467	     28.40557625	     46.33684570	      0.00000000	      0.00000000
     34.19857143	     -4.65619149	     -3.77029703	      3.05515518	      1.10729024	      0.93342587	      0.50405876	      9.84947564	      1.55100172	    -16.07147611	     14.33395017	     14.33395017	     10.53833439	      3.86091790	     -4.24938232	     31.81135619	    -10.57062993	     -0.09022644	     32.99182599	     32.99182599	      7.65825867	    -14.12825647	      7.63617846	    -11.27094643	      5.27395842	      3.13926793	     29.22495807	    -23.34388306	      3.50394044	     64.22787902	     45.00161235	      0.00000000	      0.00000000	     -0.73088721	     -8.22602946	     -3.92481584	     26.97347234	     46.36128700	      0.00000000	      0.00000000
     34.21142857	     -4.95093400	     -4.03201224	      3.27049481	      1.10667987	      0.93265934	      0.50360065	      9.86141794	      1.79819724	    -16.22706906	     14.35751148	     14.35751148	     10.75083879	      3.74301758	     -4.37783967	     32.08015357	    -10.39940828	      0.24518014	     29.65131261	     29.65131261	      7.56498933	    -12.63319968	      8.07478876	    -11.02405556	      5.65963500	      3.54904295	     30.40158809	    -23.76557847	      3.27725937	     64.63132536	     45.00325260	      0.00000000	      0.00000000	     -1.44815895	     -8.04861579	     -3.94064391	     26.71369060	     46.35107707	      0.00000000	      0.00000000
